<svg width="209px" height="255px" viewBox="0 0 209 255" version="1.1" xmlns="http://www.w3.org/2000/svg" xmlns:xlink="http://www.w3.org/1999/xlink">
    <g stroke="none" stroke-width="1" fill="none" fill-rule="evenodd">
        <g transform="translate(-87.000000, -160.000000)">
            <g transform="translate(0.000000, 30.000000)">
                <g transform="translate(87.000000, 130.000000)">
                    <g id="window">
                        <path d="M1,128.704242 L128.704242,128.704242 L128.704242,1 L1,1 L1,128.704242 Z" stroke="#131313" stroke-width="2" fill="#FEFEFE"></path>
                        <polygon stroke="#FEFEFE" fill="#232ED1" points="5.89564738 123.808595 5.89564738 5.89564738 123.808595 5.89564738 123.808595 123.808595"></polygon>
                        <rect stroke="#FEFEFE" x="35.8738843" y="6.39564738" width="1" height="116.912948"></rect>
                        <rect stroke="#FEFEFE" x="65.3521212" y="6.39564738" width="1" height="116.912948"></rect>
                        <rect stroke="#FEFEFE" transform="translate(64.852121, 35.963449) rotate(90.000000) translate(-64.852121, -35.963449) " x="64.7625565" y="-22.4930248" width="1" height="116.912948"></rect>
                        <rect stroke="#FEFEFE" transform="translate(64.852121, 65.441686) rotate(90.000000) translate(-64.852121, -65.441686) " x="64.7625565" y="6.98521212" width="1" height="116.912948"></rect>
                        <rect stroke="#FEFEFE" transform="translate(64.852121, 94.919923) rotate(90.000000) translate(-64.852121, -94.919923) " x="64.7625565" y="36.463449" width="1" height="116.912948"></rect>
                        <rect stroke="#FEFEFE" x="94.8303581" y="6.39564738" width="1" height="116.912948"></rect>
                    </g>
                    <g id="desk" transform="translate(0.000000, 148.000000)">
                        <polygon fill="#FE4A49" points="129.536101 19.0634448 129.536101 106.443232 132.646681 106.443232 132.646681 19.0634448"></polygon>
                        <polygon fill="#FE4A49" points="164.909986 19.0634448 164.909986 106.443232 168.020565 106.443232 168.020565 19.0634448"></polygon>
                        <polygon fill="#FE4A49" points="50.1130028 0.0643161533 50.1130028 18.9303878 176.649005 18.9303878 176.649005 0.0643161533"></polygon>
                        <polygon  fill="#D52C2B" points="50.6149583 18.9303878 0 18.9303878 0 0.0643161533 50.6149583 0.0643161533"></polygon>
                        <polygon  fill="#FE4A49" points="13.7134288 19.0634448 13.7134288 106.443232 16.8240084 106.443232 16.8240084 19.0634448"></polygon>
                        <polygon  fill="#FE4A49" points="49.0873131 19.0634448 49.0873131 106.443232 52.1978927 106.443232 52.1978927 19.0634448"></polygon>
                    </g>
                    <g id="plant" transform="translate(7.567269, 68.626175)">
                        <path d="M25.2085578,59.8282263 L25.2085578,34.4787552"  stroke="#49FE7E"></path>
                        <path d="M25.0866479,59.7078714 C25.0866479,54.0034033 25.0866479,49.2651951 25.0866479,45.4932467 C25.0866479,41.7212983 22.489222,37.9934075 17.2943702,34.3095742"  stroke="#49FE7E"></path>
                        <path d="M33.6071939,68.4311634 C33.6071939,59.4146942 33.6071939,53.0204855 33.6071939,49.2485371 C33.6071939,45.4765887 30.9349252,40.3888227 25.5903879,33.985239" stroke="#49FE7E" transform="translate(29.598791, 51.208201) scale(-1, 1) translate(-29.598791, -51.208201) "></path>
                        <polygon fill="#FCBA04" points="18.7183529 79.4489387 33.4574713 79.4489387 40.8270306 52.9185255 11.3487937 52.9185255"></polygon>
                        <path d="M17.3880692,34.0444145 C16.5481567,33.4473619 11.5859903,29.8930886 2.50157,23.3815945 C0.950152458,22.4936636 0.238980579,22.7129068 0.368054367,24.0393241 C0.561665049,26.0289499 -0.14630033,25.9005117 3.02037003,28.7130045 C6.18704039,31.5254973 7.73335686,30.6011656 10.9421194,33.4307284 C14.150882,36.2602912 13.2929703,38.7951838 15.8668667,40.0413494 C17.5827976,40.8721265 20.0417001,40.6538577 23.243574,39.386543 C20.1798166,36.4221765 18.2279816,34.641467 17.3880692,34.0444145 Z" fill="#49FE7E"></path>
                        <path d="M16.6587913,34.1559152 C16.0530735,33.6915497 12.4745188,30.9271666 5.92312735,25.862766 C4.80429496,25.1721661 4.29142069,25.3426854 4.38450456,26.3743239 C4.52413035,27.9217817 4.01356851,27.8218872 6.29726923,30.0093406 C8.58096996,32.196794 9.69612362,31.4778829 12.0101799,33.6786127 C14.3242362,35.8793426 13.7055378,37.8508888 15.5617491,38.8201106 C16.7992232,39.4662584 18.5725045,39.296497 20.881593,38.3108263 C18.6721097,36.0052511 17.2645092,34.6202807 16.6587913,34.1559152 Z" fill="#4CD964"></path>
                        <path d="M25.4577274,34.7778044 C22.5903995,34.8647141 20.1080375,30.0343966 19.7215713,25.2317323 C19.3351051,20.4290679 23.2427092,17.8582266 23.7794486,13.9216189 C24.316188,9.98501124 22.3140842,7.31946192 22.5356756,4.59224679 C22.757267,1.86503166 23.5286414,0.584205059 25.4577274,0.584205059 C27.3868135,0.584205059 28.0878359,1.43241818 28.7968597,4.59224679 C29.5058834,7.7520754 27.104474,8.75789823 27.8579197,14.6425239 C28.6113653,20.5271497 32.0918121,19.0253391 31.3941636,24.8779319 C30.6965152,30.7305246 28.3250554,34.6908946 25.4577274,34.7778044 Z" fill="#49FE7E"></path>
                        <path d="M25.5107916,33.0092297 C23.7903949,33.0871488 22.3009776,28.7565193 22.0690979,24.4506823 C21.8372182,20.1448453 24.1817807,17.8399531 24.5038243,14.3105807 C24.825868,10.7812083 23.6246057,8.39140543 23.7575605,5.946316 C23.8905154,3.50122657 24.35334,2.35289927 25.5107916,2.35289927 C26.6682433,2.35289927 27.0888567,3.11336621 27.514271,5.946316 C27.9396852,8.77926578 26.4988396,9.68103798 26.950907,14.9569093 C27.4029744,20.2327806 29.4912424,18.8863298 29.0726534,24.1334819 C28.6540643,29.380634 27.2311884,32.9313106 25.5107916,33.0092297 Z" fill="#4CD964"></path>
                        <path d="M33.236596,31.8467189 C32.1093249,32.7494594 29.5059277,35.7794929 31.2664173,37.3795229 C33.026907,38.979553 32.0590634,38.1835744 38.7423822,36.8506808 C45.4257009,35.5177873 47.2752754,35.0807792 51.9886738,31.2713841 C56.7020722,27.461989 57.4752264,24.818446 58.7133366,20.710043 C59.9514469,16.6016399 61.5587583,13.2082781 57.8726277,11.7467465 C54.1864972,10.2852148 50.073376,11.4697049 45.9749663,15.6593451 C41.8765566,19.8489854 44.5652942,24.6896955 41.9068898,28.0678815 C39.2484855,31.4460675 34.363867,30.9439783 33.236596,31.8467189 Z" fill="#49FE7E"></path>
                        <path d="M35.0349178,32.5488499 C34.0880101,33.1768433 31.6854869,34.8160833 33.1642982,35.9291477 C34.6431096,37.0422121 33.8301209,36.4884878 39.4441087,35.5612575 C45.0580964,34.6340272 46.0553196,33.7590727 50.0145743,31.1090587 C53.9738289,28.4590447 55.1796978,27.1910072 56.2197105,24.3329877 C57.2597231,21.4749682 58.7585185,15.0769153 55.6621689,14.0601976 C52.7697933,13.1104569 48.0042123,16.118634 47.7774246,16.3106307 C44.3347604,19.2251631 45.2626288,26.3922912 43.0295692,28.7423337 C40.7965095,31.0923761 35.9818254,31.9208565 35.0349178,32.5488499 Z" fill="#4CD964"></path>
                    </g>
                    <g id="laptop" transform="translate(54.805402, 110.128222)">
                        <polygon fill="#E7E7E7" points="80.070931 37.6733977 80.070931 32.9568798 30.547493 32.9568798 30.547493 37.6733977"></polygon>
                        <polygon fill="#9B9B9B" points="30.547493 37.6733977 11.6814213 37.6733977 11.6814213 32.9568798 30.547493 32.9568798"></polygon>
                        <path d="M12.1135891,32.9122617 L0.322294338,0.396165868 L0.322294338,5.11268377 C8.18315751,26.790081 12.1135891,37.6287796 12.1135891,37.6287796 C12.1135891,37.6287796 12.1135891,36.056607 12.1135891,32.9122617 Z" fill="#9B9B9B"></path>
                        <polygon fill="#FEFEFE" points="0.0818006467 0.857478502 52.7938098 0.857478502 64.5851046 33.2835391 11.8730954 33.2835391"></polygon>
                    </g>
                    <g id="individual" transform="translate(64.000000, 48.000000)">
                        <path d="M94.5086288,78.6934934 L78.4606459,95.8261104 L80.1840302,93.721836 C62.8599108,86.1093657 53.4616946,82.0651769 51.9893816,81.5892697 C49.780912,80.8754089 47.9427124,81.5892697 46.938206,82.9755294 C45.9336995,84.3617891 43.1541967,89.7848177 42.9886236,91.2566769 C42.8230504,92.7285362 43.6037039,94.0510429 45.6922935,94.0510429 C46.6528319,94.0510429 48.8505681,91.6777882 50.4836678,91.2566769 C51.2179034,91.0673468 52.6407955,90.7841378 54.8617949,92.4175903 C57.0827944,94.0510429 76.4411077,108.750179 82.3050414,108.750179 C86.2143305,108.750179 94.2890726,102.226452 106.529268,89.1789997 L94.5086288,78.6934934 Z" fill="#F1DFDF"></path>
                        <path d="M70.9260393,78.1039286 L54.8780563,95.2365456 L56.6014407,93.1322713 C39.2773213,85.5198009 29.8791051,81.4756121 28.406792,80.9997049 C26.1983225,80.2858441 24.3601229,80.9997049 23.3556164,82.3859647 C22.35111,83.7722244 19.5716072,89.1952529 19.4060341,90.6671122 C19.2404609,92.1389714 20.0211144,93.4614781 22.1097039,93.4614781 C23.0702424,93.4614781 25.2679786,91.0882235 26.9010783,90.6671122 C27.6353139,90.4777821 29.058206,90.194573 31.2792054,91.8280256 C33.5002049,93.4614781 52.8585182,108.160614 58.7224519,108.160614 C62.631741,108.160614 70.7064831,101.636888 82.9466781,88.5894349 L70.9260393,78.1039286 Z" fill="#FAEBEB"></path>
                        <path d="M81.2824082,119.862934 L135.821166,126.325556 L135.821166,142.93036 L106.868362,148.467856 L34.259782,150.128505 L38.116892,150.805546 C37.6718461,172.275799 37.1477601,185.993975 36.5446339,191.960075 C35.924094,198.098431 35.3059594,206.431067 34.259782,206.431067 C30.402672,206.431067 8.27251449,207.57485 4.2006759,206.431067 C0.12883731,205.287283 -0.713435968,201.920586 1.09623431,200.730324 C2.30268117,199.936816 9.74894665,198.554848 23.4350308,196.584419 C19.8696728,162.279509 19.4320061,143.210888 22.1220306,139.378557 C24.812055,135.546226 36.6070731,132.452554 57.5070848,130.097542 L78.7651904,130.097542 L81.2824082,119.862934 Z" fill="#131313"></path>
                        <path d="M35.9147016,198.384458 C35.7689483,199.793724 28.8615918,199.290602 26.8585236,199.029353 C25.4704586,198.848316 24.3292943,198.033338 23.4350308,196.584419 L21.7842612,185.331028 L37.3758027,184.273853 C36.5484489,192.262372 36.0614152,196.965907 35.9147016,198.384458 Z" fill="#FAEBEB"></path>
                        <path d="M73.4907763,150.805546 C73.0457304,172.275799 72.5216444,185.993975 71.9185182,191.960075 C71.2979783,198.098431 70.6798437,206.431067 69.6336663,206.431067 C65.7765563,206.431067 43.6463988,207.57485 39.5745602,206.431067 C35.5027216,205.287283 34.6604483,201.920586 36.4701186,200.730324 C37.6765655,199.936816 45.1228309,198.554848 58.8089151,196.584419 C55.2435571,162.279509 54.8058904,143.210888 57.4959149,139.378557 C60.1859393,135.546226 71.9809574,132.452554 92.8809691,130.097542 L114.139075,130.097542 L73.4907763,150.805546 Z" fill="#131313"></path>
                        <path d="M71.2885859,198.384458 C71.1428326,199.793724 64.2354761,199.290602 62.2324079,199.029353 C60.8443428,198.848316 59.7031786,198.033338 58.8089151,196.584419 L57.1581454,185.331028 L72.749687,184.273853 C71.9223332,192.262372 71.4352995,196.965907 71.2885859,198.384458 Z" fill="#FAEBEB"></path>
                        <path d="M76.1550634,150.229817 L74.6121204,190.368641 L56.1769386,190.368641 C54.2974364,159.202239 54.7026975,141.702872 57.392722,137.870541 C61.4277587,132.122045 77.7848751,129.939535 89.7138114,129.02255 C97.6664356,128.411226 105.463898,127.512228 113.106198,126.325556 L76.1550634,150.229817 Z" fill="#232ED1"></path>
                        <path d="M81.2824082,119.862934 L135.821166,126.325556 L135.821166,142.93036 L106.868362,148.467856 L40.7811791,150.229817 L39.2382361,190.368641 L20.8030543,190.368641 C18.9235521,159.202239 19.3288132,141.702872 22.0188377,137.870541 C26.0538744,132.122045 42.4109908,129.939535 54.3399271,129.02255 C62.2925513,128.411226 70.0900135,127.512228 77.7323136,126.325556 L81.2824082,119.862934 Z" fill="#232ED1"></path>
                        <path d="M90.9537055,53.5366407 L90.9537055,50.7754485 C90.9537055,49.055129 92.0536613,47.5274887 93.6851808,46.9819217 L107.154842,42.4777757 C109.085892,41.8320482 111.191656,42.7578996 112.02122,44.6174 L112.819239,46.4061864 C113.245627,47.3619512 114.029617,48.112539 115.00303,48.4969351 C118.042088,49.6970446 120.103218,50.4897574 121.186422,50.8750735 C123.068872,51.5446964 129.210905,53.5722217 131.084892,60.1638661 C132.290143,64.40327 133.525739,88.8171939 134.79168,133.405638 L134.791674,133.405638 C134.85437,135.613884 133.115058,137.454846 130.906812,137.517542 C130.618121,137.525739 130.329392,137.502645 130.045675,137.448666 L80.2125524,127.967566 C78.1015673,127.565937 76.685092,125.568177 77.0046456,123.443218 L80.9694685,97.0780476 C81.1367896,95.9654006 81.7649848,94.9746748 82.7000112,94.3488111 L85.0440574,92.7798144 C85.127643,92.723866 85.1500474,92.6107514 85.0940991,92.5271659 C85.0412653,92.4482334 84.936641,92.4231596 84.8537683,92.4695691 L79.1001212,95.6916706 C77.5253391,96.5735648 75.5550401,96.2915933 74.2908204,95.0034067 L65.6451077,86.1937894 C64.109998,84.6295772 64.1194909,82.1213185 65.6663966,80.5687708 L89.7872766,56.3599145 C90.5342747,55.6101919 90.9537055,54.5949838 90.9537055,53.5366407 Z" fill="#FCBA04"></path>
                        <path d="M91.9105003,48.1335097 L109.088656,42.0219674 C108.14749,40.9369065 107.393268,39.041669 106.825989,36.3362551 C106.25871,33.6308412 107.012932,25.1668089 109.088656,10.9441583 L102.889121,5.92010829 L82.8237156,9.86640945 L78.9449592,33.2592038 C82.0666002,39.8280644 84.7534594,43.1124948 87.005537,43.1124948 C90.3836532,43.1124948 92.6019323,40.4012246 92.6019323,43.7906616 C92.6019323,46.0502863 92.371455,47.4979024 91.9105003,48.1335097 Z" fill="#FAEBEB"></path>
                        <path d="M82.0050844,14.7387175 C85.5095602,15.851255 84.9878519,13.7936684 88.6328533,14.7387175 C91.9344022,15.5947187 92.3668667,15.2699252 95.03525,17.2148795 C97.3490452,18.9013786 98.2529635,19.4998772 98.5972103,22.0016244 C98.8799067,24.0560656 96.9774242,24.0469284 96.2891363,26.3272562 C95.8233872,27.8703032 95.8381566,34.081669 97.864146,34.5384805 C101.162918,35.2822734 104.94538,35.2822734 109.211534,34.5384805 C112.285158,26.8140506 113.821969,19.8388167 113.821969,13.6127787 C113.821969,9.75316451 110.743471,7.84943913 108.287941,4.74283618 C105.037009,0.629934053 97.7208104,-0.67015113 93.3498542,0.65695703 C85.8272045,2.94098124 76.7967082,8.24443431 77.5692963,10.4566849 C78.0568664,11.852807 80.5040501,14.2621962 82.0050844,14.7387175 Z" fill="#131313"></path>
                    </g>
                    <g id="chair" transform="translate(99.000000, 125.000000)" fill="#FE4A49">
                        <polygon points="58.0464687 75.5809427 43.0937104 129.496056 47.2999323 129.496056 62.1254299 75.5809427"></polygon>
                        <polygon transform="translate(63.171870, 102.538500) scale(-1, 1) translate(-63.171870, -102.538500) " points="68.6087686 75.5809427 53.6560102 129.496056 57.8622321 129.496056 72.6877298 75.5809427"></polygon>
                        <polygon points="22.6725844 75.5809427 7.71982608 129.496056 11.926048 129.496056 26.7515457 75.5809427"></polygon>
                        <path d="M0.232511912,70.8409407 C23.6780008,70.8409407 38.9307775,70.8409407 45.9908418,70.8409407 C56.5809384,70.8409407 53.6722096,8.15675134 56.5809384,3.65278276 C59.4896671,-0.851185813 101.65989,-0.851185813 105.437892,3.65278276 C109.215895,8.15675134 112.892013,75.9366445 105.437892,75.9366445 C100.468479,75.9366445 65.4000185,75.9366445 0.232511912,75.9366445 L0.232511912,70.8409407 Z"></path>
                        <polygon transform="translate(98.545754, 102.538500) scale(-1, 1) translate(-98.545754, -102.538500) " points="103.982653 75.5809427 89.0298945 129.496056 93.2361164 129.496056 108.061614 75.5809427"></polygon>
                    </g>
                </g>
            </g>
        </g>
    </g>
</svg>
