<?xml version="1.0" encoding="UTF-8"?>
<svg width="335px" height="156px" viewBox="0 0 335 156" version="1.1" xmlns="http://www.w3.org/2000/svg" xmlns:xlink="http://www.w3.org/1999/xlink">
    <!-- Generator: Sketch 50.2 (55047) - http://www.bohemiancoding.com/sketch -->
    <title>example</title>
    <desc>Created with Sketch.</desc>
    <defs></defs>
    <g id="🌕-mobile-design:-iteration-four" stroke="none" stroke-width="1" fill="none" fill-rule="evenodd">
        <g id="sitStandBottom" transform="translate(-20.000000, -315.000000)" stroke="#FEFEFE">
            <g id="example" transform="translate(20.000000, 315.000000)">
                <g id="grid" stroke-dasharray="1,4" stroke-linecap="square" stroke-linejoin="bevel">
                    <path d="M335,26.5 L0,26.5" id="Line-2" opacity="0.3"></path>
                    <path d="M335,52.5 L0,52.5" id="Line-2" opacity="0.3"></path>
                    <path d="M335,79.5 L0,79.5" id="Line-2" opacity="0.6"></path>
                    <path d="M335,106.5 L0,106.5" id="Line-2" opacity="0.3"></path>
                    <path d="M335,132.5 L0,132.5" id="Line-2" opacity="0.3"></path>
                    <path d="M32.5,0 L32.5,160" id="Line-2" opacity="0.3"></path>
                    <path d="M63.5,0 L63.5,160" id="Line-2" opacity="0.3"></path>
                    <path d="M93.5,0 L93.5,160" id="Line-2" opacity="0.3"></path>
                    <path d="M123.5,0 L123.5,160" id="Line-2" opacity="0.3"></path>
                    <path d="M154.5,0 L154.5,160" id="Line-2" opacity="0.3"></path>
                    <path d="M184.5,0 L184.5,160" id="Line-2" opacity="0.3"></path>
                    <path d="M215.5,0 L215.5,160" id="Line-2" opacity="0.3"></path>
                    <path d="M245.5,0 L245.5,160" id="Line-2" opacity="0.3"></path>
                    <path d="M276.5,0 L276.5,160" id="Line-2" opacity="0.3"></path>
                    <path d="M306.5,0 L306.5,160" id="Line-2" opacity="0.3"></path>
                </g>
                <polyline id="Path-50" stroke-width="2" opacity="0.6" points="0 80 32.5 80 32.5 106.5 83.5 106.5 83.5 52.5 93.5 52.5 93.5 106.5 144.5 106.5 144.5 52.5 154.5 52.5 154.5 106.5 205.5 106.5 205.5 52.5 215.5 52.5 215.5 106.5 266.5 106.5 266.5 52.5 276.5 52.5 276.5 106.5 320.613747 106.5 320.613747 79.5 335 79.5"></polyline>
            </g>
        </g>
    </g>
</svg>