<?xml version="1.0" encoding="UTF-8"?>
<svg width="336px" height="335px" viewBox="0 0 336 335" version="1.1" xmlns="http://www.w3.org/2000/svg" xmlns:xlink="http://www.w3.org/1999/xlink">
    <!-- Generator: Sketch 50.2 (55047) - http://www.bohemiancoding.com/sketch -->
    <title>Group</title>
    <desc>Created with Sketch.</desc>
    <defs></defs>
    <g id="🌕-mobile-design:-iteration-four" stroke="none" stroke-width="1" fill="none" fill-rule="evenodd">
        <g id="sittingPostureTop" transform="translate(-20.000000, -311.000000)">
            <g id="weightDistribution" transform="translate(20.000000, 288.000000)">
                <g id="Group" transform="translate(0.000000, 22.000000)">
                    <g id="graphGrid" opacity="0.3" transform="translate(0.000000, 1.000000)" stroke="#131313" stroke-dasharray="1,4" stroke-linecap="square" stroke-linejoin="bevel">
                        <path d="M0,88 L335,88" id="Line"></path>
                        <path d="M0,68 L335,68" id="Line"></path>
                        <path d="M0,48 L335,48" id="Line"></path>
                        <path d="M0,28 L335,28" id="Line"></path>
                        <path d="M0,8 L335,8" id="Line"></path>
                        <path d="M0,108 L335,108" id="Line"></path>
                        <path d="M0,128 L335,128" id="Line"></path>
                        <path d="M0,148 L335,148" id="Line"></path>
                        <path d="M0,168 L335,168" id="Line"></path>
                        <path d="M0,188 L335,188" id="Line"></path>
                        <path d="M0,208 L335,208" id="Line"></path>
                        <path d="M0,228 L335,228" id="Line"></path>
                        <path d="M0,248 L335,248" id="Line"></path>
                        <path d="M0,268 L335,268" id="Line"></path>
                        <path d="M0,288 L335,288" id="Line"></path>
                        <path d="M0,308 L335,308" id="Line"></path>
                        <path d="M0,328 L335,328" id="Line"></path>
                        <path d="M120.5,167.5 L454.5,167.5" id="Line" transform="translate(287.500000, 167.500000) rotate(90.000000) translate(-287.500000, -167.500000) "></path>
                        <path d="M100.5,167.5 L434.5,167.5" id="Line" transform="translate(267.500000, 167.500000) rotate(90.000000) translate(-267.500000, -167.500000) "></path>
                        <path d="M80.5,167.5 L414.5,167.5" id="Line" transform="translate(247.500000, 167.500000) rotate(90.000000) translate(-247.500000, -167.500000) "></path>
                        <path d="M160.5,167.5 L494.5,167.5" id="Line" transform="translate(327.500000, 167.500000) rotate(90.000000) translate(-327.500000, -167.500000) "></path>
                        <path d="M140.5,167.5 L474.5,167.5" id="Line" transform="translate(307.500000, 167.500000) rotate(90.000000) translate(-307.500000, -167.500000) "></path>
                        <path d="M60.5,167.5 L394.5,167.5" id="Line" transform="translate(227.500000, 167.500000) rotate(90.000000) translate(-227.500000, -167.500000) "></path>
                        <path d="M40.5,167.5 L374.5,167.5" id="Line" transform="translate(207.500000, 167.500000) rotate(90.000000) translate(-207.500000, -167.500000) "></path>
                        <path d="M20.5,167.5 L354.5,167.5" id="Line" transform="translate(187.500000, 167.500000) rotate(90.000000) translate(-187.500000, -167.500000) "></path>
                        <path d="M0.5,167.5 L334.5,167.5" id="Line" transform="translate(167.500000, 167.500000) rotate(90.000000) translate(-167.500000, -167.500000) "></path>
                        <path d="M-19.5,167.5 L314.5,167.5" id="Line" transform="translate(147.500000, 167.500000) rotate(90.000000) translate(-147.500000, -167.500000) "></path>
                        <path d="M-39.5,167.5 L294.5,167.5" id="Line" transform="translate(127.500000, 167.500000) rotate(90.000000) translate(-127.500000, -167.500000) "></path>
                        <path d="M-59.5,167.5 L274.5,167.5" id="Line" transform="translate(107.500000, 167.500000) rotate(90.000000) translate(-107.500000, -167.500000) "></path>
                        <path d="M-79.5,167.5 L254.5,167.5" id="Line" transform="translate(87.500000, 167.500000) rotate(90.000000) translate(-87.500000, -167.500000) "></path>
                        <path d="M-99.5,167.5 L234.5,167.5" id="Line" transform="translate(67.500000, 167.500000) rotate(90.000000) translate(-67.500000, -167.500000) "></path>
                        <path d="M-119.5,167.5 L214.5,167.5" id="Line" transform="translate(47.500000, 167.500000) rotate(90.000000) translate(-47.500000, -167.500000) "></path>
                        <path d="M-139.5,167.5 L194.5,167.5" id="Line" transform="translate(27.500000, 167.500000) rotate(90.000000) translate(-27.500000, -167.500000) "></path>
                        <path d="M-159.5,167.5 L174.5,167.5" id="Line" transform="translate(7.500000, 167.500000) rotate(90.000000) translate(-7.500000, -167.500000) "></path>
                    </g>
                    <g id="userPressure" transform="translate(70.000000, 71.000000)" fill="#41D3BD">
                        <rect id="Rectangle-3" x="59" y="80" width="16" height="16"></rect>
                        <rect id="Rectangle-3" x="80" y="80" width="16" height="16"></rect>
                        <rect id="Rectangle-3" x="80" y="60" width="16" height="16"></rect>
                        <rect id="Rectangle-3" x="60" y="60" width="16" height="16"></rect>
                        <rect id="Rectangle-3" x="60" y="40" width="16" height="16"></rect>
                        <rect id="Rectangle-3" x="80" y="40" width="16" height="16"></rect>
                        <rect id="Rectangle-3" opacity="0.66" x="80" y="20" width="16" height="16"></rect>
                        <rect id="Rectangle-3" opacity="0.66" x="60" y="20" width="16" height="16"></rect>
                        <rect id="Rectangle-3" opacity="0.33" x="40" y="20" width="16" height="16"></rect>
                        <rect id="Rectangle-3" opacity="0.33" x="100" y="20" width="16" height="16"></rect>
                        <rect id="Rectangle-3" opacity="0.33" x="100" y="0" width="16" height="16"></rect>
                        <rect id="Rectangle-3" opacity="0.33" x="80" y="0" width="16" height="16"></rect>
                        <rect id="Rectangle-3" x="40" y="40" width="16" height="16"></rect>
                        <rect id="Rectangle-3" opacity="0.66" x="40" y="60" width="16" height="16"></rect>
                        <rect id="Rectangle-3" opacity="0.66" x="40" y="80" width="16" height="16"></rect>
                        <rect id="Rectangle-3" opacity="0.66" x="40" y="100" width="16" height="16"></rect>
                        <rect id="Rectangle-3" x="60" y="100" width="16" height="16"></rect>
                        <rect id="Rectangle-3" x="80" y="100" width="16" height="16"></rect>
                        <rect id="Rectangle-3" opacity="0.66" x="80" y="120" width="16" height="16"></rect>
                        <rect id="Rectangle-3" opacity="0.33" x="80" y="140" width="16" height="16"></rect>
                        <rect id="Rectangle-3" opacity="0.66" x="60" y="120" width="16" height="16"></rect>
                        <rect id="Rectangle-3" opacity="0.66" x="40" y="120" width="16" height="16"></rect>
                        <rect id="Rectangle-3" opacity="0.33" x="20" y="120" width="16" height="16"></rect>
                        <rect id="Rectangle-3" opacity="0.33" x="60" y="140" width="16" height="16"></rect>
                        <rect id="Rectangle-3" opacity="0.33" x="40" y="140" width="16" height="16"></rect>
                        <rect id="Rectangle-3" opacity="0.66" x="20" y="100" width="16" height="16"></rect>
                        <rect id="Rectangle-3" opacity="0.66" x="20" y="80" width="16" height="16"></rect>
                        <rect id="Rectangle-3" opacity="0.33" x="0" y="100" width="16" height="16"></rect>
                        <rect id="Rectangle-3" opacity="0.33" x="0" y="80" width="16" height="16"></rect>
                        <rect id="Rectangle-3" opacity="0.33" x="20" y="60" width="16" height="16"></rect>
                        <rect id="Rectangle-3" opacity="0.33" x="0" y="60" width="16" height="16"></rect>
                        <rect id="Rectangle-3" opacity="0.33" x="20" y="40" width="16" height="16"></rect>
                        <rect id="Rectangle-3" opacity="0.66" x="100" y="100" width="16" height="16"></rect>
                        <rect id="Rectangle-3" opacity="0.66" x="100" y="120" width="16" height="16"></rect>
                        <rect id="Rectangle-3" opacity="0.66" x="120" y="100" width="16" height="16"></rect>
                        <rect id="Rectangle-3" opacity="0.66" x="120" y="80" width="16" height="16"></rect>
                        <rect id="Rectangle-3" x="100" y="80" width="16" height="16"></rect>
                        <rect id="Rectangle-3" opacity="0.66" x="100" y="60" width="16" height="16"></rect>
                        <rect id="Rectangle-3" opacity="0.33" x="100" y="40" width="16" height="16"></rect>
                        <rect id="Rectangle-3" opacity="0.33" x="120" y="40" width="16" height="16"></rect>
                        <rect id="Rectangle-3" opacity="0.33" x="120" y="20" width="16" height="16"></rect>
                        <rect id="Rectangle-3" opacity="0.33" x="120" y="0" width="16" height="16"></rect>
                        <rect id="Rectangle-3" opacity="0.66" x="120" y="60" width="16" height="16"></rect>
                        <rect id="Rectangle-3" opacity="0.33" x="120" y="120" width="16" height="16"></rect>
                        <rect id="Rectangle-3" opacity="0.33" x="140" y="120" width="16" height="16"></rect>
                        <rect id="Rectangle-3" opacity="0.33" x="140" y="100" width="16" height="16"></rect>
                        <rect id="Rectangle-3" opacity="0.33" x="140" y="80" width="16" height="16"></rect>
                        <rect id="Rectangle-3" opacity="0.33" x="140" y="60" width="16" height="16"></rect>
                        <rect id="Rectangle-3" opacity="0.33" x="140" y="40" width="16" height="16"></rect>
                        <rect id="Rectangle-3" opacity="0.33" x="140" y="20" width="16" height="16"></rect>
                        <rect id="Rectangle-3" opacity="0.33" x="100" y="140" width="16" height="16"></rect>
                        <rect id="Rectangle-3" opacity="0.33" x="120" y="140" width="16" height="16"></rect>
                    </g>
                    <g id="graphAxis">
                        <rect id="Rectangle-4" fill="#131313" x="165" y="287" width="6" height="6"></rect>
                        <rect id="Rectangle-4" fill="#131313" x="165" y="247" width="6" height="6"></rect>
                        <rect id="Rectangle-4" fill="#131313" x="165" y="207" width="6" height="6"></rect>
                        <rect id="Rectangle-4" fill="#131313" x="165" y="127" width="6" height="6"></rect>
                        <rect id="Rectangle-4" fill="#131313" x="165" y="87" width="6" height="6"></rect>
                        <rect id="Rectangle-4" fill="#131313" x="165" y="47" width="6" height="6"></rect>
                        <path d="M168,335.5 L168,1.5" id="Path-3" stroke="#131313" stroke-width="2"></path>
                        <path d="M0,169 L335,169" id="Path-3" stroke="#131313" stroke-width="2"></path>
                        <rect id="Rectangle-4" fill="#131313" x="285" y="166" width="6" height="6"></rect>
                        <rect id="Rectangle-4" fill="#131313" x="245" y="166" width="6" height="6"></rect>
                        <rect id="Rectangle-4" fill="#131313" x="205" y="166" width="6" height="6"></rect>
                        <rect id="Rectangle-4" fill="#131313" x="125" y="166" width="6" height="6"></rect>
                        <rect id="Rectangle-4" fill="#131313" x="85" y="166" width="6" height="6"></rect>
                        <rect id="Rectangle-4" fill="#131313" x="45" y="166" width="6" height="6"></rect>
                        <text id="front" font-family="AvenirNext-Medium, Avenir Next" font-size="12" font-weight="400" fill="#131313">
                            <tspan x="172" y="12">front</tspan>
                        </text>
                        <text id="back" font-family="AvenirNext-Medium, Avenir Next" font-size="12" font-weight="400" fill="#131313">
                            <tspan x="172" y="332">back</tspan>
                        </text>
                        <text id="right" font-family="AvenirNext-Medium, Avenir Next" font-size="12" font-weight="400" fill="#131313">
                            <tspan x="310" y="183">right</tspan>
                        </text>
                        <text id="left" font-family="AvenirNext-Medium, Avenir Next" font-size="12" font-weight="400" fill="#131313">
                            <tspan x="0" y="183">left</tspan>
                        </text>
                        <rect id="Rectangle-4" fill="#131313" x="165" y="166" width="6" height="6"></rect>
                    </g>
                </g>
            </g>
        </g>
    </g>
</svg>